<svg width="205" height="69" viewBox="0 0 205 69" fill="none" xmlns="http://www.w3.org/2000/svg">
<rect x="0.5" width="204" height="69" rx="10" fill="white"/>
<path d="M42.843 16.0568C42.7645 15.9691 39.9376 16.0914 37.4776 18.7614C35.0176 21.4291 35.396 24.4891 35.4514 24.5676C35.5068 24.6461 38.9591 24.7684 41.163 21.6645C43.3668 18.5607 42.9214 16.1468 42.843 16.0568ZM50.4907 43.133C50.3799 42.9115 45.1253 40.2853 45.6145 35.2361C46.1037 30.1845 49.4799 28.7999 49.533 28.6499C49.5861 28.4999 48.1553 26.8268 46.6391 25.9799C45.5259 25.3828 44.2939 25.0407 43.0322 24.9784C42.783 24.9714 41.9176 24.7591 40.1383 25.2461C38.966 25.5668 36.3237 26.6053 35.5968 26.6468C34.8676 26.6884 32.6983 25.4422 30.3652 25.1122C28.8722 24.8238 27.2891 25.4145 26.156 25.8691C25.0252 26.3214 22.8745 27.6091 21.3698 31.0315C19.8652 34.4515 20.6521 39.8699 21.2152 41.5546C21.7783 43.2369 22.6575 45.9946 24.1529 48.0069C25.4821 50.2777 27.2452 51.8538 27.9814 52.3892C28.7175 52.9246 30.7945 53.28 32.2345 52.5438C33.3929 51.833 35.4837 51.4246 36.3099 51.4546C37.1337 51.4846 38.7583 51.81 40.4222 52.6984C41.7399 53.153 42.986 52.9638 44.2345 52.4561C45.483 51.9461 47.2899 50.0123 49.3991 46.0915C50.1999 44.2684 50.5645 43.283 50.4907 43.133Z" fill="#161616"/>
<path d="M42.843 16.0568C42.7645 15.9691 39.9376 16.0914 37.4776 18.7614C35.0176 21.4291 35.396 24.4891 35.4514 24.5676C35.5068 24.6461 38.9591 24.7684 41.163 21.6645C43.3668 18.5607 42.9214 16.1468 42.843 16.0568ZM50.4907 43.133C50.3799 42.9115 45.1253 40.2853 45.6145 35.2361C46.1037 30.1845 49.4799 28.7999 49.533 28.6499C49.5861 28.4999 48.1553 26.8268 46.6391 25.9799C45.5259 25.3828 44.2939 25.0407 43.0322 24.9784C42.783 24.9714 41.9176 24.7591 40.1383 25.2461C38.966 25.5668 36.3237 26.6053 35.5968 26.6468C34.8676 26.6884 32.6983 25.4422 30.3652 25.1122C28.8722 24.8238 27.2891 25.4145 26.156 25.8691C25.0252 26.3214 22.8745 27.6091 21.3698 31.0315C19.8652 34.4515 20.6521 39.8699 21.2152 41.5546C21.7783 43.2369 22.6575 45.9946 24.1529 48.0069C25.4821 50.2777 27.2452 51.8538 27.9814 52.3892C28.7175 52.9246 30.7945 53.28 32.2345 52.5438C33.3929 51.833 35.4837 51.4246 36.3099 51.4546C37.1337 51.4846 38.7583 51.81 40.4222 52.6984C41.7399 53.153 42.986 52.9638 44.2345 52.4561C45.483 51.9461 47.2899 50.0123 49.3991 46.0915C50.1999 44.2684 50.5645 43.283 50.4907 43.133Z" fill="#161616"/>
<path d="M75.5159 14.228C76.3185 14.228 77.0419 14.3727 77.6859 14.662C78.3392 14.942 78.8619 15.32 79.2539 15.796C80.0565 16.7573 80.4579 17.8633 80.4579 19.114C80.4579 20.1127 80.1965 21.0227 79.6739 21.844C79.1045 22.7493 78.3159 23.3747 77.3079 23.72C76.7572 23.9067 76.1599 24 75.5159 24H72.0719V14.228H75.5159ZM75.3619 22.81C76.5192 22.81 77.4479 22.4693 78.1479 21.788C78.8479 21.1067 79.1979 20.2153 79.1979 19.114C79.1979 18.0127 78.8479 17.1213 78.1479 16.44C77.4479 15.7587 76.5192 15.418 75.3619 15.418H73.3459V22.81H75.3619ZM81.8859 20.43C81.8859 19.3193 82.2125 18.4233 82.8659 17.742C83.5192 17.0607 84.3825 16.72 85.4559 16.72C86.5385 16.72 87.4065 17.0607 88.0599 17.742C88.7225 18.4233 89.0539 19.3193 89.0539 20.43C89.0539 21.5407 88.7225 22.4367 88.0599 23.118C87.4065 23.7993 86.5385 24.14 85.4559 24.14C84.3825 24.14 83.5192 23.7993 82.8659 23.118C82.2125 22.4367 81.8859 21.5407 81.8859 20.43ZM83.8459 22.348C84.3125 22.768 84.8539 22.978 85.4699 22.978C86.0859 22.978 86.6225 22.768 87.0799 22.348C87.5465 21.9187 87.7799 21.2793 87.7799 20.43C87.7799 19.5713 87.5465 18.932 87.0799 18.512C86.6225 18.092 86.0859 17.882 85.4699 17.882C84.8539 17.882 84.3125 18.092 83.8459 18.512C83.3885 18.932 83.1599 19.5713 83.1599 20.43C83.1599 21.2793 83.3885 21.9187 83.8459 22.348ZM99.2234 16.86H100.567L98.1174 24H96.8714L95.2474 18.89H95.2054L93.5814 24H92.3354L89.8854 16.86H91.2294L92.9234 22.46H92.9654L94.7014 16.86H95.7514L97.4874 22.46H97.5294L99.2234 16.86ZM105.708 16.72C106.482 16.72 107.094 16.9813 107.542 17.504C107.99 18.0267 108.214 18.68 108.214 19.464V24H106.94V19.604C106.94 18.4653 106.426 17.896 105.4 17.896C104.588 17.896 103.822 18.344 103.104 19.24V24H101.83V16.86H102.95L103.104 17.756V17.966H103.132C103.888 17.1353 104.746 16.72 105.708 16.72ZM111.747 13.78V24H110.473V13.78H111.747ZM113.632 20.43C113.632 19.3193 113.959 18.4233 114.612 17.742C115.265 17.0607 116.129 16.72 117.202 16.72C118.285 16.72 119.153 17.0607 119.806 17.742C120.469 18.4233 120.8 19.3193 120.8 20.43C120.8 21.5407 120.469 22.4367 119.806 23.118C119.153 23.7993 118.285 24.14 117.202 24.14C116.129 24.14 115.265 23.7993 114.612 23.118C113.959 22.4367 113.632 21.5407 113.632 20.43ZM115.592 22.348C116.059 22.768 116.6 22.978 117.216 22.978C117.832 22.978 118.369 22.768 118.826 22.348C119.293 21.9187 119.526 21.2793 119.526 20.43C119.526 19.5713 119.293 18.932 118.826 18.512C118.369 18.092 117.832 17.882 117.216 17.882C116.6 17.882 116.059 18.092 115.592 18.512C115.135 18.932 114.906 19.5713 114.906 20.43C114.906 21.2793 115.135 21.9187 115.592 22.348ZM122.71 17.252C123.522 16.8973 124.39 16.72 125.314 16.72C126.247 16.72 126.961 16.9907 127.456 17.532C127.95 18.0733 128.198 18.722 128.198 19.478V24H127.078L126.924 23.104H126.882C126.21 23.7947 125.346 24.14 124.292 24.14C123.657 24.14 123.116 23.9487 122.668 23.566C122.229 23.1833 122.01 22.6607 122.01 21.998C122.01 21.3353 122.28 20.7987 122.822 20.388C123.372 19.9773 124.175 19.772 125.23 19.772H126.924V19.66C126.924 19.044 126.77 18.6007 126.462 18.33C126.163 18.0593 125.64 17.924 124.894 17.924C124.147 17.924 123.447 18.0827 122.794 18.4H122.71V17.252ZM126.924 21.97V20.794H125.398C123.988 20.794 123.284 21.1673 123.284 21.914C123.284 22.6513 123.778 23.02 124.768 23.02C125.178 23.02 125.575 22.922 125.958 22.726C126.34 22.5207 126.662 22.2687 126.924 21.97ZM130.923 17.728C131.604 17.056 132.398 16.72 133.303 16.72C134.208 16.72 134.992 17.0653 135.655 17.756H135.697V13.78H136.971V24H135.851L135.697 23.104H135.655C134.992 23.7947 134.208 24.14 133.303 24.14C132.398 24.14 131.604 23.804 130.923 23.132C130.251 22.46 129.915 21.5593 129.915 20.43C129.915 19.3007 130.251 18.4 130.923 17.728ZM133.485 22.95C134.325 22.95 135.062 22.6 135.697 21.9V18.96C135.062 18.26 134.325 17.91 133.485 17.91C132.794 17.91 132.239 18.1293 131.819 18.568C131.399 19.0067 131.189 19.6273 131.189 20.43C131.189 21.2327 131.399 21.8533 131.819 22.292C132.239 22.7307 132.794 22.95 133.485 22.95ZM142.384 20.43C142.384 19.3193 142.711 18.4233 143.364 17.742C144.017 17.0607 144.881 16.72 145.954 16.72C147.037 16.72 147.905 17.0607 148.558 17.742C149.221 18.4233 149.552 19.3193 149.552 20.43C149.552 21.5407 149.221 22.4367 148.558 23.118C147.905 23.7993 147.037 24.14 145.954 24.14C144.881 24.14 144.017 23.7993 143.364 23.118C142.711 22.4367 142.384 21.5407 142.384 20.43ZM144.344 22.348C144.811 22.768 145.352 22.978 145.968 22.978C146.584 22.978 147.121 22.768 147.578 22.348C148.045 21.9187 148.278 21.2793 148.278 20.43C148.278 19.5713 148.045 18.932 147.578 18.512C147.121 18.092 146.584 17.882 145.968 17.882C145.352 17.882 144.811 18.092 144.344 18.512C143.887 18.932 143.658 19.5713 143.658 20.43C143.658 21.2793 143.887 21.9187 144.344 22.348ZM155.213 16.72C155.988 16.72 156.599 16.9813 157.047 17.504C157.495 18.0267 157.719 18.68 157.719 19.464V24H156.445V19.604C156.445 18.4653 155.932 17.896 154.905 17.896C154.093 17.896 153.328 18.344 152.609 19.24V24H151.335V16.86H152.455L152.609 17.756V17.966H152.637C153.393 17.1353 154.252 16.72 155.213 16.72ZM167.269 17.952H165.239V22.18C165.239 22.572 165.347 22.8147 165.561 22.908C165.739 22.9827 165.967 23.02 166.247 23.02C166.527 23.02 166.835 22.9453 167.171 22.796H167.269V23.832C166.877 24.0373 166.457 24.14 166.009 24.14C164.647 24.14 163.965 23.524 163.965 22.292V17.952H162.635V17.868L165.239 15.32V16.86H167.269V17.952ZM172.755 16.72C173.529 16.72 174.141 16.9813 174.589 17.504C175.037 18.0267 175.261 18.68 175.261 19.464V24H173.987V19.604C173.987 18.4653 173.473 17.896 172.447 17.896C171.635 17.896 170.869 18.344 170.151 19.24V24H168.877V13.78H170.151V17.966H170.193C170.949 17.1353 171.803 16.72 172.755 16.72ZM183.68 20.43V20.878H178.276C178.35 21.5313 178.593 22.04 179.004 22.404C179.414 22.768 180.035 22.95 180.866 22.95C181.706 22.95 182.48 22.7167 183.19 22.25H183.26V23.482C182.476 23.9207 181.552 24.14 180.488 24.14C179.433 24.14 178.584 23.818 177.94 23.174C177.305 22.5207 176.988 21.6433 176.988 20.542C176.988 19.4313 177.272 18.5167 177.842 17.798C178.411 17.0793 179.242 16.72 180.334 16.72C181.426 16.72 182.256 17.0793 182.826 17.798C183.395 18.5167 183.68 19.394 183.68 20.43ZM178.276 19.842H182.406C182.368 19.17 182.14 18.6613 181.72 18.316C181.309 17.9707 180.847 17.798 180.334 17.798C179.82 17.798 179.358 17.9707 178.948 18.316C178.537 18.6613 178.313 19.17 178.276 19.842Z" fill="#161616"/>
<path d="M82.5182 53L81.0182 49.42H74.2382L72.7382 53H70.7582L76.6782 39.04H78.5782L84.4982 53H82.5182ZM74.9582 47.66V47.76H80.2982V47.66L77.6582 41.28H77.6182L74.9582 47.66ZM94.8035 51.76C93.8435 52.72 92.7168 53.2 91.4235 53.2C90.1302 53.2 89.0102 52.7067 88.0635 51.72H88.0035V57.6H86.1835V42.8H87.7835L88.0035 44.08H88.0635C89.0102 43.0933 90.1302 42.6 91.4235 42.6C92.7168 42.6 93.8435 43.08 94.8035 44.04C95.7768 45 96.2635 46.2867 96.2635 47.9C96.2635 49.5133 95.7768 50.8 94.8035 51.76ZM91.1635 44.3C89.9635 44.3 88.9102 44.8 88.0035 45.8V50C88.9102 51 89.9635 51.5 91.1635 51.5C92.1502 51.5 92.9435 51.1867 93.5435 50.56C94.1435 49.9333 94.4435 49.0467 94.4435 47.9C94.4435 46.7533 94.1435 45.8667 93.5435 45.24C92.9435 44.6133 92.1502 44.3 91.1635 44.3ZM107.421 51.76C106.461 52.72 105.334 53.2 104.041 53.2C102.747 53.2 101.627 52.7067 100.681 51.72H100.621V57.6H98.8007V42.8H100.401L100.621 44.08H100.681C101.627 43.0933 102.747 42.6 104.041 42.6C105.334 42.6 106.461 43.08 107.421 44.04C108.394 45 108.881 46.2867 108.881 47.9C108.881 49.5133 108.394 50.8 107.421 51.76ZM103.781 44.3C102.581 44.3 101.527 44.8 100.621 45.8V50C101.527 51 102.581 51.5 103.781 51.5C104.767 51.5 105.561 51.1867 106.161 50.56C106.761 49.9333 107.061 49.0467 107.061 47.9C107.061 46.7533 106.761 45.8667 106.161 45.24C105.561 44.6133 104.767 44.3 103.781 44.3ZM117.993 42.8C117.993 43.3333 118.2 43.7733 118.613 44.12C119.04 44.4667 119.567 44.7133 120.193 44.86C120.82 44.9933 121.5 45.1667 122.233 45.38C122.98 45.58 123.667 45.8 124.293 46.04C124.92 46.28 125.44 46.68 125.853 47.24C126.28 47.7867 126.493 48.4733 126.493 49.3C126.493 50.4467 126.02 51.3867 125.073 52.12C124.14 52.84 122.833 53.2 121.153 53.2C119.473 53.2 117.873 52.84 116.353 52.12V50.34H116.453C117.84 51.1133 119.42 51.5 121.193 51.5C123.527 51.5 124.693 50.7267 124.693 49.18C124.693 48.42 124.127 47.86 122.993 47.5C122.5 47.34 121.953 47.1867 121.353 47.04C120.753 46.8933 120.147 46.72 119.533 46.52C118.933 46.32 118.38 46.0867 117.873 45.82C117.38 45.54 116.973 45.16 116.653 44.68C116.347 44.1867 116.193 43.6067 116.193 42.94C116.193 41.78 116.647 40.8067 117.553 40.02C118.473 39.2333 119.707 38.84 121.253 38.84C122.813 38.84 124.22 39.08 125.473 39.56V41.26H125.333C124.08 40.7533 122.873 40.5 121.713 40.5C120.567 40.5 119.66 40.7067 118.993 41.12C118.327 41.52 117.993 42.08 117.993 42.8ZM134.317 44.36H131.417V50.4C131.417 50.96 131.571 51.3067 131.877 51.44C132.131 51.5467 132.457 51.6 132.857 51.6C133.257 51.6 133.697 51.4933 134.177 51.28H134.317V52.76C133.757 53.0533 133.157 53.2 132.517 53.2C130.571 53.2 129.597 52.32 129.597 50.56V44.36H127.697V44.24L131.417 40.6V42.8H134.317V44.36ZM135.993 47.9C135.993 46.3133 136.46 45.0333 137.393 44.06C138.327 43.0867 139.56 42.6 141.093 42.6C142.64 42.6 143.88 43.0867 144.813 44.06C145.76 45.0333 146.233 46.3133 146.233 47.9C146.233 49.4867 145.76 50.7667 144.813 51.74C143.88 52.7133 142.64 53.2 141.093 53.2C139.56 53.2 138.327 52.7133 137.393 51.74C136.46 50.7667 135.993 49.4867 135.993 47.9ZM138.793 50.64C139.46 51.24 140.233 51.54 141.113 51.54C141.993 51.54 142.76 51.24 143.413 50.64C144.08 50.0267 144.413 49.1133 144.413 47.9C144.413 46.6733 144.08 45.76 143.413 45.16C142.76 44.56 141.993 44.26 141.113 44.26C140.233 44.26 139.46 44.56 138.793 45.16C138.14 45.76 137.813 46.6733 137.813 47.9C137.813 49.1133 138.14 50.0267 138.793 50.64ZM154.401 42.6H154.561V44.34H154.401C153.615 44.34 152.881 44.4933 152.201 44.8C151.521 45.1067 150.988 45.5333 150.601 46.08V53H148.781V42.8H150.381L150.601 44.08V44.38H150.641C151.601 43.1933 152.855 42.6 154.401 42.6ZM165.476 47.9V48.54H157.756C157.862 49.4733 158.209 50.2 158.796 50.72C159.382 51.24 160.269 51.5 161.456 51.5C162.656 51.5 163.762 51.1667 164.776 50.5H164.876V52.26C163.756 52.8867 162.436 53.2 160.916 53.2C159.409 53.2 158.196 52.74 157.276 51.82C156.369 50.8867 155.916 49.6333 155.916 48.06C155.916 46.4733 156.322 45.1667 157.136 44.14C157.949 43.1133 159.136 42.6 160.696 42.6C162.256 42.6 163.442 43.1133 164.256 44.14C165.069 45.1667 165.476 46.42 165.476 47.9ZM157.756 47.06H163.656C163.602 46.1 163.276 45.3733 162.676 44.88C162.089 44.3867 161.429 44.14 160.696 44.14C159.962 44.14 159.302 44.3867 158.716 44.88C158.129 45.3733 157.809 46.1 157.756 47.06Z" fill="#161616"/>
</svg>
